<svg xmlns="http://www.w3.org/2000/svg" width="30" height="29" viewBox="0 0 30 29">
    <g fill="#FFF" fill-rule="nonzero" transform="translate(.614)">
        <path d="M20.203 0H9.183C4.113 0 0 4.058 0 9.063v10.874C0 24.942 4.112 29 9.183 29h11.02c5.07 0 9.183-4.058 9.183-9.063V9.063C29.386 4.059 25.274 0 20.203 0zm6.428 19.938c0 3.498-2.883 6.343-6.428 6.343H9.183c-3.545 0-6.428-2.845-6.428-6.343V9.063c0-3.499 2.883-6.344 6.428-6.344h11.02c3.545 0 6.428 2.845 6.428 6.344v10.874z"/>
        <path d="M14.693 7.25c-4.057 0-7.346 3.246-7.346 7.25s3.289 7.25 7.346 7.25 7.347-3.246 7.347-7.25-3.29-7.25-7.347-7.25zm0 11.781c-2.53 0-4.592-2.033-4.592-4.531 0-2.5 2.061-4.531 4.592-4.531 2.531 0 4.592 2.032 4.592 4.531 0 2.498-2.061 4.531-4.592 4.531z"/>
        <ellipse cx="22.591" cy="6.706" rx="1" ry="1"/>
    </g>
</svg>
