<svg xmlns="http://www.w3.org/2000/svg" width="31" height="25" viewBox="0 0 31 25">
    <path fill="#FFF" fill-rule="nonzero" d="M30.257 3.551a12.691 12.691 0 0 1-3.47.94 5.927 5.927 0 0 0 2.65-3.287 12.137 12.137 0 0 1-3.82 1.44A6.075 6.075 0 0 0 21.215.761c-3.336 0-6.02 2.672-6.02 5.947 0 .471.04.924.139 1.355A17.128 17.128 0 0 1 2.917 1.846a5.926 5.926 0 0 0-.824 3.005c0 2.059 1.074 3.884 2.676 4.94a6.01 6.01 0 0 1-2.722-.731v.065c0 2.889 2.088 5.289 4.826 5.841a6.088 6.088 0 0 1-1.58.196c-.385 0-.774-.022-1.14-.101a6.072 6.072 0 0 0 5.63 4.141 12.208 12.208 0 0 1-7.47 2.536c-.494 0-.968-.022-1.442-.082 2.669 1.699 5.832 2.668 9.242 2.668 11.086 0 17.147-9.062 17.147-16.917 0-.263-.01-.517-.022-.769a11.932 11.932 0 0 0 3.02-3.087z"/>
</svg>
