<svg xmlns="http://www.w3.org/2000/svg" width="31" height="21" viewBox="0 0 31 21">
    <path fill="#FFF" fill-rule="nonzero" d="M28.88 2.755c-.797-1.4-1.662-1.657-3.424-1.755C23.696.882 19.272.833 15.44.833c-3.84 0-8.266.05-10.024.165-1.758.1-2.625.356-3.429 1.757C1.165 4.152.743 6.559.743 10.797V10.81c0 4.22.422 6.645 1.243 8.028.804 1.399 1.67 1.653 3.427 1.77 1.76.102 6.186.162 10.026.162 3.833 0 8.258-.06 10.02-.16 1.76-.117 2.626-.371 3.423-1.77.828-1.383 1.247-3.809 1.247-8.028v-.01-.005c0-4.239-.419-6.646-1.25-8.043zM11.762 16.24V5.365l9.184 5.437-9.184 5.438z"/>
</svg>
